<svg width="265" height="51" xmlns="http://www.w3.org/2000/svg">
 <style type="text/css">.st0{fill:none;stroke:#ffffff;stroke-width:2.1634;stroke-linecap:round;stroke-linejoin:round;stroke-miterlimit:10;}</style>

 <g>
  <title>background</title>
  <rect fill="none" id="canvas_background" height="53" width="267" y="-1" x="-1"/>
 </g>
 <g>
  <title>Layer 1</title>
  <g id="svg_1">
   <g id="svg_2">
    <path fill="#ffffff" id="svg_3" d="m43.06903,48.01682c0,0.66 -0.24,1.21 -0.73,1.65c-0.49,0.44 -1.07,0.66 -1.75,0.66c-1.06,0 -1.81,-0.53 -2.23,-1.59l-4.53,-10.7l-24.03,0l-4.59,10.71c-0.43,1.06 -1.17,1.59 -2.23,1.59c-0.68,0 -1.27,-0.23 -1.79,-0.69c-0.51,-0.46 -0.76,-1.02 -0.76,-1.68c0,-0.35 0.08,-0.7 0.25,-1.06l18.23,-42.02c0.25,-0.62 0.64,-1.08 1.15,-1.39c0.51,-0.31 1.06,-0.46 1.66,-0.46c0.64,0 1.21,0.17 1.72,0.5c0.51,0.33 0.89,0.78 1.15,1.35l18.23,42.01c0.16,0.35 0.25,0.73 0.25,1.12zm-11.16,-14.46l-10.13,-23.72l-10.07,23.72l20.2,0z"/>
    <path fill="#ffffff" id="svg_4" d="m92.23903,3.86682c0.45,0.51 0.67,1.18 0.67,2.01l0,41.81c0,0.79 -0.21,1.43 -0.64,1.92c-0.43,0.48 -1.02,0.73 -1.78,0.73c-0.77,0 -1.34,-0.24 -1.72,-0.73c-0.38,-0.48 -0.57,-1.12 -0.57,-1.92l0,-33.75l-13.84,27.48c-0.6,1.28 -1.47,1.92 -2.61,1.92c-1.11,0 -1.98,-0.64 -2.61,-1.92l-13.9,-27.15l0,33.42c0,0.79 -0.2,1.43 -0.61,1.92c-0.4,0.48 -0.99,0.73 -1.75,0.73s-1.36,-0.24 -1.78,-0.73c-0.43,-0.48 -0.64,-1.12 -0.64,-1.92l0,-41.81c0,-0.84 0.23,-1.51 0.7,-2.01c0.47,-0.51 1.1,-0.76 1.91,-0.76c1.06,0 1.91,0.64 2.55,1.92l16.19,32.17l16,-32.17c0.34,-0.7 0.71,-1.2 1.12,-1.49c0.4,-0.29 0.88,-0.43 1.43,-0.43c0.81,0 1.44,0.25 1.88,0.76z"/>
    <path fill="#ffffff" id="svg_5" d="m135.58903,30.05682c1.42,1.94 2.14,4.36 2.14,7.27c0,4.1 -1.3,7.23 -3.89,9.41c-2.59,2.18 -6.27,3.27 -11.03,3.27l-16.06,0c-0.81,0 -1.46,-0.24 -1.94,-0.73c-0.49,-0.48 -0.73,-1.12 -0.73,-1.92l0,-41.28c0,-0.79 0.24,-1.43 0.73,-1.92c0.49,-0.48 1.14,-0.73 1.94,-0.73l15.36,0c4.63,0 8.22,1.06 10.77,3.17c2.55,2.11 3.82,5.11 3.82,8.98c0,2.51 -0.63,4.67 -1.88,6.47c-1.25,1.81 -3.01,3.15 -5.26,4.03c2.59,0.72 4.6,2.04 6.03,3.98zm-26.36,-5.95l12.11,0c3.36,0 5.9,-0.7 7.62,-2.11c1.72,-1.41 2.58,-3.46 2.58,-6.14c0,-5.28 -3.4,-7.93 -10.2,-7.93l-12.11,0l0,16.18zm20.87,19.39c1.68,-1.34 2.52,-3.45 2.52,-6.31c0,-5.72 -3.44,-8.59 -10.33,-8.59l-13.07,0l0,16.91l13.07,0c3.53,0 6.13,-0.67 7.81,-2.01z"/>
    <path fill="#ffffff" id="svg_6" d="m147.75903,49.30682c-0.49,-0.46 -0.73,-1.07 -0.73,-1.82l0,-41.61c0,-0.84 0.23,-1.51 0.7,-2.01c0.47,-0.51 1.1,-0.76 1.91,-0.76c0.81,0 1.44,0.25 1.91,0.76c0.47,0.51 0.7,1.18 0.7,2.01l0,39.5l20.59,0c0.76,0 1.36,0.2 1.78,0.59c0.42,0.4 0.64,0.97 0.64,1.72c0,0.75 -0.21,1.32 -0.64,1.72c-0.43,0.4 -1.02,0.59 -1.78,0.59l-23.27,0c-0.72,0 -1.32,-0.23 -1.81,-0.69z"/>
   </g>
   <g id="svg_7">
    <ellipse fill="#000000" id="svg_8" ry="24.01" rx="23.17" cy="25.60524" cx="200" class="st0"/>
    <ellipse fill="#000000" id="svg_9" ry="4" rx="3.86" cy="25.40682" cx="200.31903" class="st0"/>
    <path fill="#000000" id="svg_10" d="m200.31903,44.61682c-10.24,0 -18.53,-8.6 -18.53,-19.21" class="st0"/>
    <path fill="#000000" id="svg_11" d="m200.31903,6.19682c10.24,0 18.53,8.6 18.53,19.21" class="st0"/>
    <path fill="#000000" id="svg_12" d="m200.31903,11.00682c7.68,0 13.9,6.45 13.9,14.41" class="st0"/>
    <path fill="#000000" id="svg_13" d="m200.31903,39.81682c-7.68,0 -13.9,-6.45 -13.9,-14.41" class="st0"/>
    <path fill="#000000" id="svg_14" d="m200.31903,35.00682c-5.12,0 -9.27,-4.3 -9.27,-9.6" class="st0"/>
    <path fill="#000000" id="svg_15" d="m200.31903,15.80682c5.12,0 9.27,4.3 9.27,9.6" class="st0"/>
    <ellipse fill="#000000" id="svg_16" ry="0.2" rx="0.19" cy="25.40682" cx="200.31903" class="st0"/>
   </g>
   <g id="svg_17">
    <path fill="#ffffff" id="svg_18" d="m263.41903,47.43682c0,0.66 -0.24,1.2 -0.73,1.62c-0.49,0.42 -1.05,0.63 -1.69,0.63c-0.98,0 -1.74,-0.44 -2.29,-1.32l-8.54,-14c-1.11,-1.81 -2.25,-3.05 -3.44,-3.73c-1.19,-0.68 -2.8,-1.02 -4.84,-1.02l-8.03,0l0,17.24c0,0.84 -0.23,1.51 -0.7,2.01c-0.47,0.51 -1.08,0.76 -1.85,0.76c-0.81,0 -1.45,-0.25 -1.91,-0.76c-0.47,-0.51 -0.7,-1.18 -0.7,-2.01l0,-41.5c0,-0.79 0.24,-1.43 0.73,-1.92c0.49,-0.48 1.14,-0.73 1.94,-0.73l15.81,0c4.89,0 8.61,1.12 11.19,3.37c2.57,2.25 3.86,5.55 3.86,9.91c0,3.7 -1.03,6.67 -3.09,8.92c-2.06,2.25 -5,3.61 -8.83,4.1c1.06,0.35 2.02,0.92 2.87,1.72c0.85,0.79 1.7,1.89 2.55,3.3l7.27,11.89c0.27,0.48 0.42,0.99 0.42,1.52zm-16.7,-22.33c3.48,0 6.09,-0.75 7.81,-2.25c1.72,-1.5 2.58,-3.77 2.58,-6.8c0,-2.99 -0.85,-5.22 -2.55,-6.67c-1.7,-1.45 -4.31,-2.18 -7.84,-2.18l-12.87,0l0,17.9l12.87,0z"/>
   </g>
  </g>
 </g>
</svg>